<?xml version="1.0" encoding="utf-8"?>
<!-- Svg Vector Icons : http://www.onlinewebfonts.com/icon -->
<!DOCTYPE svg PUBLIC "-//W3C//DTD SVG 1.1//EN" "http://www.w3.org/Graphics/SVG/1.1/DTD/svg11.dtd">
<svg version="1.1" xmlns="http://www.w3.org/2000/svg" xmlns:xlink="http://www.w3.org/1999/xlink" x="0px" y="0px" viewBox="0 0 1000 1000" enable-background="new 0 0 1000 1000" xml:space="preserve">
<metadata> Svg Vector Icons : http://www.onlinewebfonts.com/icon </metadata>
<g><g><g><path d="M881.5,340.8c5.5-70.3,26.9-134.4,64.1-192.3L802.9,10c-45.5,38.6-97.2,59.3-155.1,62c-53.8,5.5-104.1-4.1-150.9-28.9C448.7,66.5,398.4,76.2,346,72c-55.1-4.1-104.1-22.7-146.8-55.8L56.6,152.7C91,213.3,110.3,276,114.4,340.8c1.4,30.3-7.6,72.4-26.9,126.1c-11,28.9-19.3,54.4-24.8,76.5c-4.1,22.1-6.9,39.3-8.3,51.7c-1.4,56.5,15.2,107.5,49.6,153c26.2,34.5,70.3,71.7,132.3,111.6c66.2,33.1,117.2,53.8,153,62c4.1,1.4,9.3,3.8,15.5,7.2c6.2,3.4,11.4,5.9,15.5,7.2l28.9,12.4c23.4,13.8,39.3,27.6,47.6,41.4c9.6-15.2,25.5-28.9,47.6-41.4c17.9-6.9,31-12.4,39.3-16.5c13.8-5.5,21.4-9,22.7-10.3c8.3-2.8,18.6-6.9,31-12.4l45.5-16.5c34.5-11,60-22.1,76.5-33.1c59.3-40,102.7-76.5,130.3-109.6c34.5-45.5,51.7-97.2,51.7-155.1c-2.8-26.2-14.5-67.5-35.1-124.1C887,414.5,878.7,371.1,881.5,340.8z"/></g></g><g></g><g></g><g></g><g></g><g></g><g></g><g></g><g></g><g></g><g></g><g></g><g></g><g></g><g></g><g></g></g>
</svg>